<svg width="24" height="24" viewBox="0 0 24 24" fill="none" xmlns="http://www.w3.org/2000/svg">
<path fill-rule="evenodd" clip-rule="evenodd" d="M12.0001 23C13.1001 23 13.9901 22.11 13.9901 21.01H10.0101C10.0101 22.11 10.9001 23 12.0001 23ZM20.2901 18.29L19.0001 17V11C19.0001 7.65 16.6401 4.85 13.5001 4.17V3C13.5001 2.17 12.8301 1.5 12.0001 1.5C11.1701 1.5 10.5001 2.17 10.5001 3V4.17C7.36005 4.85 5.00005 7.65 5.00005 11V17L3.71005 18.29C3.08005 18.92 3.52005 20 4.41005 20H19.5801C20.4801 20 20.92 18.92 20.2901 18.29ZM13.0001 16H11.0001V14H13.0001V16ZM13.0001 11C13.0001 11.55 12.5501 12 12.0001 12C11.4501 12 11.0001 11.55 11.0001 11V9C11.0001 8.45 11.4501 8 12.0001 8C12.5501 8 13.0001 8.45 13.0001 9V11Z" fill="#979797"/>
<rect x="6" y="1.16663" width="15" height="10.5" rx="2" fill="#EB001B"/>
<path d="M16.249 9H11.5908V8.35059L14.0518 5.61621C14.4163 5.2028 14.667 4.86751 14.8037 4.61035C14.9437 4.34993 15.0137 4.08138 15.0137 3.80469C15.0137 3.43359 14.9014 3.12923 14.6768 2.8916C14.4521 2.65397 14.1527 2.53516 13.7783 2.53516C13.3291 2.53516 12.9792 2.66374 12.7285 2.9209C12.4811 3.1748 12.3574 3.52962 12.3574 3.98535H11.4541C11.4541 3.33105 11.6641 2.80208 12.084 2.39844C12.5072 1.99479 13.0719 1.79297 13.7783 1.79297C14.4391 1.79297 14.9616 1.96712 15.3457 2.31543C15.7298 2.66048 15.9219 3.12109 15.9219 3.69727C15.9219 4.39714 15.4759 5.23047 14.584 6.19727L12.6797 8.2627H16.249V9Z" fill="#FAFAFC"/>
</svg>
