<svg width="26" height="26" viewBox="0 0 26 26" fill="none" xmlns="http://www.w3.org/2000/svg">
<path fill-rule="evenodd" clip-rule="evenodd" d="M3.49771 12.5422L3.9977 12.5399L9.99764 12.5132L10.4976 12.511L10.4999 13.011L10.531 20.0109L10.5332 20.5109L10.0333 20.5132L6.03329 20.531C4.65716 20.5371 3.52831 19.4182 3.52219 18.0421L3.49993 13.0422L3.49771 12.5422ZM4.50215 13.5377L4.52218 18.0377C4.52585 18.8615 5.20499 19.5346 6.02884 19.531L9.52881 19.5154L9.5021 13.5155L4.50215 13.5377ZM10.4976 12.511L10.9976 12.5088L22.9975 12.4554L23.4975 12.4532L23.4997 12.9531L23.522 17.9531C23.5281 19.3292 22.4093 20.4581 21.0331 20.4642L11.0332 20.5087L10.5332 20.5109L10.531 20.0109L10.4999 13.011L10.4976 12.511ZM11.5021 13.5066L11.5288 19.5065L21.0287 19.4642C21.8525 19.4605 22.5257 18.7814 22.522 17.9575L22.502 13.4576L11.5021 13.5066ZM3.47768 8.04221C3.47155 6.66608 4.5904 5.53723 5.96653 5.53111L20.9664 5.46435C22.3425 5.45822 23.4714 6.57707 23.4775 7.95319L23.4953 11.9532L23.4975 12.4532L22.9975 12.4554L3.9977 12.5399L3.49771 12.5422L3.49548 12.0422L3.47768 8.04221ZM5.97098 6.5311C5.14713 6.53477 4.474 7.21391 4.47767 8.03776L4.49325 11.5377L22.4931 11.4576L22.4775 7.95765C22.4738 7.1338 21.7947 6.46067 20.9708 6.46434L5.97098 6.5311Z" fill="#FAFAFC"/>
</svg>
